PathFileType	4	(X/Y/Z)	 s09c0201.trc
DataRate	CameraRate	NumFrames	NumMarkers	Units	OrigDataRate	OrigDataStartFrame	OrigNumFrames
200	200	5	50	mm	200	1751	2000
Frame#	Time	racr			lacr			c7			jug			rlel			rdr			llel			ldr			s2			lic			ric			lasi			rasi			rpsi			lpsi			rgt			lgt			rth1			rth2			rth3			rth4			rlfc			rmfc			rsh1			rsh2			rsh3			rsh4			rlmal			rmmal			rcal			rtoe			rmt5			lth1			lth2			lth4			lth3			llfc			lmfc			llmal			lmmal			lcal			lmt5			lsh1			lsh2			lsh3			lsh4			ltoe			SBIKE			LBIKE			RBIKE			
		X1	Y1	Z1	X2	Y2	Z2	X3	Y3	Z3	X4	Y4	Z4	X5	Y5	Z5	X6	Y6	Z6	X7	Y7	Z7	X8	Y8	Z8	X9	Y9	Z9	X10	Y10	Z10	X11	Y11	Z11	X12	Y12	Z12	X13	Y13	Z13	X14	Y14	Z14	X15	Y15	Z15	X16	Y16	Z16	X17	Y17	Z17	X18	Y18	Z18	X19	Y19	Z19	X20	Y20	Z20	X21	Y21	Z21	X22	Y22	Z22	X23	Y23	Z23	X24	Y24	Z24	X25	Y25	Z25	X26	Y26	Z26	X27	Y27	Z27	X28	Y28	Z28	X29	Y29	Z29	X30	Y30	Z30	X31	Y31	Z31	X32	Y32	Z32	X33	Y33	Z33	X34	Y34	Z34	X35	Y35	Z35	X36	Y36	Z36	X37	Y37	Z37	X38	Y38	Z38	X39	Y39	Z39	X40	Y40	Z40	X41	Y41	Z41	X42	Y42	Z42	X43	Y43	Z43	X44	Y44	Z44	X45	Y45	Z45	X46	Y46	Z46	X47	Y47	Z47	X48	Y48	Z48	X49	Y49	Z49	X50	Y50	Z50	
1751	8.7550	534.860499	1208.277767	-84.437263	515.428487	1205.236084	-430.499675	516.481188	1279.603108	-256.899140	475.553722	1152.605168	-250.684971	488.901734	1018.343059	76.538025	683.171735	907.027711	-10.916861	454.992550	1002.121020	-606.303753	655.080135	908.257666	-497.511855	19.943118	1131.609573	-206.758637	135.123443	1153.281315	-367.805017	169.562146	1118.010755	-69.306657	180.122403	1092.369141	-350.187726	211.018418	1070.384503	-99.016036	54.715441	1159.046759	-145.707971	44.041588	1174.234925	-251.862066	154.748025	977.537045	-37.894734	117.085952	1022.350571	-408.996428	259.177064	885.361799	-56.772926	334.030780	843.302715	-73.300207	373.658659	764.440958	-84.730173	353.689130	862.679315	-98.421411	409.380442	671.645992	-120.727327	379.236074	654.653409	-214.913444	330.697550	608.581860	-83.315288	287.656692	530.914534	-93.320450	212.384240	485.968137	-87.532853	305.415361	515.524344	-125.766748	142.291192	417.456664	-80.135526	143.889106	421.289719	-156.861533	66.845508	452.588147	-116.532789	209.458975	230.773036	-129.672732	152.177014	288.017438	-61.633792	234.285032	936.249999	-413.270901	315.687785	911.004975	-408.814687	335.591667	940.238031	-394.250705	376.524628	844.473936	-410.682374	445.969505	767.030592	-395.523976	464.301918	751.302042	-299.190670	349.471244	410.851235	-414.994564	363.000636	421.991234	-339.122609	279.037086	365.517805	-377.680102	451.903422	338.443599	-435.622711	416.115467	670.447520	-419.948186	416.496781	583.644421	-414.177415	372.169671	506.723060	-415.372511	441.625633	578.902184	-383.907514	539.150440	367.137855	-364.535386	-65.051800	853.333008	-238.026158	20.642980	84.902629	-441.986391	21.124812	84.043541	-43.731215	
1752	8.7600	533.720805	1207.913796	-83.236681	516.935069	1205.822921	-429.829434	516.253464	1280.327999	-254.165388	475.513658	1152.501052	-249.622781	488.014750	1016.840224	76.269894	683.137957	906.939603	-10.948306	455.324512	1003.495733	-606.088251	654.670136	908.277564	-497.351536	19.094259	1133.704987	-198.891190	134.394414	1151.434791	-369.656184	169.591427	1117.992538	-70.774583	180.221956	1091.301178	-351.892708	211.054460	1070.502193	-100.693142	54.291208	1158.326941	-147.192600	44.022921	1172.242494	-253.851605	156.408074	978.027851	-38.930058	115.836647	1017.693324	-410.192832	262.062893	888.172115	-58.447199	337.609147	847.529019	-75.437666	378.817704	769.575919	-86.312044	356.576650	867.296265	-100.505553	415.357630	677.406746	-122.185659	384.349884	660.327622	-216.099029	335.443752	615.217562	-84.328836	291.051351	538.389104	-94.075313	215.080484	494.655687	-87.954564	308.538516	522.433366	-126.458632	143.892341	427.689440	-80.246116	146.296630	431.240479	-156.419674	68.807668	464.080642	-116.036902	208.052296	240.008964	-129.701519	151.721309	298.072635	-61.631347	232.309467	930.747452	-414.933154	313.149901	903.915376	-410.635709	333.733297	932.729055	-396.636976	373.019697	836.340093	-411.629239	439.726906	757.255503	-395.859112	459.183142	742.573414	-300.436050	349.431534	399.746209	-415.082406	363.316085	411.057225	-339.551983	279.619160	354.190745	-377.671531	452.605047	327.487960	-435.483905	411.108581	660.858092	-421.215822	413.205062	573.998693	-415.209086	370.542127	496.209360	-415.950667	438.891224	569.922422	-385.559070	539.730849	356.340242	-364.408873	-65.034163	853.319401	-238.038462	20.648381	84.906053	-441.983124	21.126246	84.041869	-43.723144	
1753	8.7650	532.461347	1207.578995	-82.017042	518.666405	1206.607495	-428.752957	517.083560	1280.777519	-251.988581	475.489970	1152.403938	-248.487171	487.075931	1015.309246	76.009923	683.048266	906.755573	-10.924683	455.624585	1005.052597	-605.862543	654.307750	908.366247	-497.239717	19.773821	1129.311989	-209.168436	133.562763	1149.325024	-371.482073	169.515860	1118.094446	-72.317843	180.303960	1090.153059	-353.736364	211.107375	1070.741943	-102.324913	53.832232	1157.647657	-148.947005	44.016755	1170.515266	-256.538030	158.074589	978.639810	-40.039177	114.515667	1013.080682	-411.419860	264.789411	891.006056	-59.910063	341.271579	851.967385	-77.608222	383.858330	775.352477	-87.932396	359.426233	872.111400	-102.709218	421.368880	683.255239	-123.631951	389.698398	665.957285	-217.455869	340.427743	622.009452	-85.435167	294.709604	545.779298	-94.993622	218.128519	503.493465	-88.445898	311.999112	529.544536	-127.005186	145.871928	438.072603	-80.388475	148.384248	441.497292	-156.502537	72.240030	475.661477	-116.570300	207.475283	249.524184	-129.547516	151.847052	308.498873	-61.628242	230.164107	925.147463	-416.623964	310.568042	896.517631	-412.352755	331.733970	925.264148	-398.796603	368.890689	828.095888	-412.828296	434.097389	748.073261	-397.615452	454.678475	734.283811	-301.329963	348.875137	388.718971	-415.207165	362.904657	399.851139	-339.870448	279.589932	342.982713	-377.766991	452.646828	316.549819	-435.430557	405.895413	651.180471	-422.195804	409.618993	564.362615	-416.020349	368.383735	485.881282	-416.478129	435.609844	560.601144	-386.287060	539.771780	345.474050	-364.316827	-64.993171	853.310575	-238.077442	20.668958	84.897745	-441.984434	21.127687	84.035839	-43.736614	
1754	8.7700	531.164231	1207.271464	-80.693153	520.636500	1207.383035	-427.566219	517.507452	1280.816177	-250.611114	475.487495	1152.316661	-247.287177	486.121252	1013.788833	75.834209	683.123271	906.664890	-10.898551	456.114890	1006.425182	-605.599530	654.024097	908.274439	-497.069577	19.777976	1128.257448	-210.860371	132.921227	1147.006613	-373.358613	169.394776	1118.440525	-74.055310	180.463931	1088.929553	-355.603235	211.061187	1071.117464	-103.958079	53.461121	1157.041370	-151.031970	44.228992	1168.832232	-258.680952	159.675994	979.216338	-41.222428	113.259824	1008.673553	-412.746050	267.395037	894.242879	-61.542486	344.697840	856.891022	-79.402335	388.989789	781.205450	-89.664060	362.211675	877.308719	-104.701155	427.144935	689.520086	-125.115004	394.242261	671.632871	-218.584419	345.470615	629.089426	-86.771158	298.678097	553.585784	-95.834050	221.464264	512.501479	-88.973433	315.729047	536.998277	-127.840440	148.353143	448.424411	-80.613590	150.870604	451.853742	-156.604118	75.370076	487.146931	-116.461366	207.613017	259.309347	-129.532048	152.749014	318.897100	-61.618349	227.985581	919.655723	-418.540849	307.751770	889.256892	-413.902496	329.658729	917.552947	-400.724443	364.546984	819.596846	-413.886696	427.921188	738.781140	-398.585916	448.751889	724.660054	-301.611669	347.624334	377.820804	-415.360805	363.000498	389.728433	-341.033550	278.947898	331.880168	-377.775655	452.027914	305.501739	-435.329797	400.564296	641.506198	-423.060185	405.777772	554.989078	-417.042687	365.780920	475.623926	-416.924612	432.027196	551.170568	-386.841506	539.319651	334.429917	-364.109839	-64.963406	853.279214	-238.224385	20.687212	84.874629	-441.975721	21.134875	84.035914	-43.736563	
1755	8.7750	529.788675	1206.907112	-79.313650	522.782100	1207.890795	-426.203617	517.711196	1281.089767	-248.760342	475.511071	1152.242057	-246.031834	485.174962	1012.209581	75.755163	683.033099	906.620741	-10.700765	456.444001	1007.831177	-605.498641	653.806288	908.146830	-496.931985	19.792080	1127.201715	-212.912540	132.452754	1144.610811	-375.124964	169.169229	1118.914898	-75.882319	180.725755	1087.676299	-357.501282	210.964889	1071.627712	-105.563729	52.988160	1156.511832	-153.429133	44.394837	1167.388721	-261.207707	161.105965	979.873774	-42.539117	112.126347	1004.302080	-414.184614	269.786408	897.528784	-63.273375	348.046954	861.891989	-81.133016	394.156683	787.110038	-91.372834	364.711279	882.969784	-106.609086	432.966448	695.901994	-126.495042	400.801839	678.195418	-220.335821	350.925150	636.972200	-87.510701	302.927226	561.520065	-96.749850	225.382698	521.353968	-89.826045	319.689140	544.660418	-128.704946	151.259520	458.807785	-80.905436	153.715055	462.219205	-156.784175	78.067191	498.641223	-117.587383	208.439699	269.120643	-129.595633	154.217516	329.356367	-61.656558	225.711234	914.170824	-420.236114	304.571965	882.158096	-415.279920	327.323277	909.783343	-402.533029	359.546143	810.868198	-415.051921	421.244953	729.369095	-398.657937	442.107213	716.050848	-302.735402	345.736302	366.858018	-415.424427	359.090541	377.290417	-339.479251	277.655294	320.750991	-377.816253	450.712286	294.520922	-435.309113	395.171919	631.733986	-423.794799	401.534525	545.289843	-417.665567	362.638854	465.432601	-417.354256	427.874866	541.914556	-387.526101	537.971872	323.541560	-364.096699	-65.029404	853.229359	-238.463612	20.692906	84.861457	-441.988828	21.147493	84.006713	-43.752430	
